<svg id="kity_svg_6" xmlns="http://www.w3.org/2000/svg" xmlns:xlink="http://www.w3.org/1999/xlink" version="1.1" width="964" height="429" style="background: rgb(251, 251, 251); visibility: visible;" viewBox="0 0 964 429"><defs id="kity_defs_7"><linearGradient id="kity_linearGradient_17" x1="0" y1="0" x2="0" y2="1"><stop id="kity_stop_18" offset="0" stop-color="rgb(255, 255, 255)"></stop><stop id="kity_stop_19" offset="1" stop-color="rgb(204, 204, 204)"></stop></linearGradient><marker id="kity_marker_2" orient="auto" refX="6" refY="0" viewBox="-7 -7 14 14" markerWidth="7" markerHeight="7" markerUnits="userSpaceOnUse"><path id="kity_path_3" fill="rgb(115, 161, 191)" stroke="none" d="M6,0A6,6,0,1,1,-6,0A6,6,0,1,1,6,0"></path></marker></defs><g id="kity_g_8"><g id="minder1" text-rendering="optimize-speed"><g id="minder_connect_group1"><path id="kity_path_31" fill="none" stroke="rgb(115, 161, 191)" stroke-width="1" d="M416.0000084415078,213.50000413507223A174.5,0,0,0,1,590.5000084415078,213.50000413507223"></path><path id="kity_path_47" fill="none" stroke="rgb(115, 161, 191)" stroke-width="1" d="M416.0000084415078,213.50000413507223A174.5,0,0,0,1,241.50000844150782,213.50000413507223"></path><path id="kity_path_55" fill="none" stroke="rgb(115, 161, 191)" stroke-width="1" d="M702.5000084415078,213.50000413507223C717.5000084415078,213.50000413507223,717.5000084415078,71.50000413507223,732.5000084415078,71.50000413507223L810.5000084415078,71.50000413507223"></path><path id="kity_path_63" fill="none" stroke="rgb(115, 161, 191)" stroke-width="1" d="M702.5000084415078,213.50000413507223C717.5000084415078,213.50000413507223,717.5000084415078,175.50000413507223,732.5000084415078,175.50000413507223L811.5000084415078,175.50000413507223"></path><path id="kity_path_71" fill="none" stroke="rgb(115, 161, 191)" stroke-width="1" d="M702.5000084415078,213.50000413507223C717.5000084415078,213.50000413507223,717.5000084415078,279.50000413507223,732.5000084415078,279.50000413507223L811.5000084415078,279.50000413507223"></path><path id="kity_path_79" fill="none" stroke="rgb(115, 161, 191)" stroke-width="1" d="M702.5000084415078,213.50000413507223C717.5000084415078,213.50000413507223,717.5000084415078,383.50000413507223,732.5000084415078,383.50000413507223L810.5000084415078,383.50000413507223"></path><path id="kity_path_87" fill="none" stroke="rgb(115, 161, 191)" stroke-width="1" d="M810.5000084415078,71.50000413507223C825.5000084415078,71.50000413507223,825.5000084415078,45.50000413507223,840.5000084415078,45.50000413507223L918.5000084415078,45.50000413507223"></path><path id="kity_path_95" fill="none" stroke="rgb(115, 161, 191)" stroke-width="1" d="M810.5000084415078,71.50000413507223C825.5000084415078,71.50000413507223,825.5000084415078,97.50000413507223,840.5000084415078,97.50000413507223L919.5000084415078,97.50000413507223"></path><path id="kity_path_103" fill="none" stroke="rgb(115, 161, 191)" stroke-width="1" d="M811.5000084415078,175.50000413507223C826.5000084415078,175.50000413507223,826.5000084415078,149.50000413507223,841.5000084415078,149.50000413507223L944.5000084415078,149.50000413507223"></path><path id="kity_path_111" fill="none" stroke="rgb(115, 161, 191)" stroke-width="1" d="M811.5000084415078,175.50000413507223C826.5000084415078,175.50000413507223,826.5000084415078,201.50000413507223,841.5000084415078,201.50000413507223L920.5000084415078,201.50000413507223"></path><path id="kity_path_127" fill="none" stroke="rgb(115, 161, 191)" stroke-width="1" d="M811.5000084415078,279.50000413507223C826.5000084415078,279.50000413507223,826.5000084415078,253.50000413507223,841.5000084415078,253.50000413507223L944.5000084415078,253.50000413507223"></path><path id="kity_path_135" fill="none" stroke="rgb(115, 161, 191)" stroke-width="1" d="M811.5000084415078,279.50000413507223C826.5000084415078,279.50000413507223,826.5000084415078,305.50000413507223,841.5000084415078,305.50000413507223L908.5000084415078,305.50000413507223"></path><path id="kity_path_143" fill="none" stroke="rgb(115, 161, 191)" stroke-width="1" d="M810.5000084415078,383.50000413507223C825.5000084415078,383.50000413507223,825.5000084415078,357.50000413507223,840.5000084415078,357.50000413507223L942.5000084415078,357.50000413507223"></path><path id="kity_path_151" fill="none" stroke="rgb(115, 161, 191)" stroke-width="1" d="M810.5000084415078,383.50000413507223C825.5000084415078,383.50000413507223,825.5000084415078,409.50000413507223,840.5000084415078,409.50000413507223L942.5000084415078,409.50000413507223"></path><path id="kity_path_159" fill="none" stroke="rgb(115, 161, 191)" stroke-width="1" d="M129.50000844150782,213.50000413507223C114.50000844150782,213.50000413507223,114.50000844150782,175.50000413507223,99.50000844150782,175.50000413507223L20.500008441507816,175.50000413507223"></path><path id="kity_path_167" fill="none" stroke="rgb(115, 161, 191)" stroke-width="1" d="M129.50000844150782,213.50000413507223C114.50000844150782,213.50000413507223,114.50000844150782,227.50000413507223,99.50000844150782,227.50000413507223L32.500008441507816,227.50000413507223"></path><path id="kity_path_175" fill="none" stroke="rgb(115, 161, 191)" stroke-width="1" d="M129.50000844150782,213.50000413507223C114.50000844150782,213.50000413507223,114.50000844150782,279.50000413507223,99.50000844150782,279.50000413507223L20.500008441507816,279.50000413507223"></path></g><g id="minder_node1"><path id="node_outline1" fill="rgb(115, 161, 191)" stroke="rgb(115, 161, 191)" d="M364.5000084415078,193.50000413507223h103a5,5,0,0,1,5,5v30a5,5,0,0,1,-5,5h-103a5,5,0,0,1,-5,-5v-30a5,5,0,0,1,5,-5z" stroke-width="3"></path><g id="node_text1" fill="white"><text id="kity_text_22" text-rendering="inherit" font-size="16" dy=".8em" y="203.10000409930944" x="383.5000084415078">排序算法</text></g></g><g id="kity_g_12"><path id="kity_path_13" fill="none" stroke="none" d="M383.5000084415078,213.50000413507223h0v0h0z"></path></g><g id="kity_g_14"><path id="kity_path_15" fill="none" stroke="none" d="M383.5000084415078,213.50000413507223h0v0h0z"></path><path id="kity_path_16" fill="none" stroke="none"></path></g><g id="minder_node2"><g id="node_expander1" style="cursor: pointer;"><path id="kity_path_36" fill="white" stroke="gray" d="M591.5000114515424,213.50000413507223A6,6,0,1,1,579.5000114515424,213.50000413507223A6,6,0,1,1,591.5000114515424,213.50000413507223"></path><path id="kity_path_37" fill="none" stroke="gray" d="M581.0000114515424,213.50000413507223L590.0000114515424,213.50000413507223"></path></g><path id="node_outline2" fill="rgb(238, 243, 246)" stroke="rgb(115, 161, 191)" d="M595.5000118538737,200.50000413507223h104a3,3,0,0,1,3,3v20a3,3,0,0,1,-3,3h-104a3,3,0,0,1,-3,-3v-20a3,3,0,0,1,3,-3z" stroke-width="1"></path><g id="node_text2" fill="black"><text id="kity_text_33" text-rendering="inherit" font-size="14" dy=".8em" y="204.4000041037798" x="612.5000118538737">比较类排序</text></g></g><g id="minder_node4"><g id="node_expander3" style="cursor: pointer;"><path id="kity_path_52" fill="white" stroke="gray" d="M252.50000640004873,213.50000413507223A6,6,0,1,1,240.50000640004873,213.50000413507223A6,6,0,1,1,252.50000640004873,213.50000413507223"></path><path id="kity_path_53" fill="none" stroke="gray" d="M242.00000640004873,213.50000413507223L251.00000640004873,213.50000413507223"></path></g><path id="node_outline4" fill="rgb(238, 243, 246)" stroke="rgb(115, 161, 191)" d="M132.5000049546361,200.50000413507223h104a3,3,0,0,1,3,3v20a3,3,0,0,1,-3,3h-104a3,3,0,0,1,-3,-3v-20a3,3,0,0,1,3,-3z" stroke-width="1"></path><g id="node_text4" fill="black"><text id="kity_text_49" text-rendering="inherit" font-size="14" dy=".8em" y="204.4000041037798" x="149.5000049546361">非比较排序</text></g></g><g id="minder_node5"><g id="node_expander4" style="cursor: pointer;"><path id="kity_path_60" fill="white" stroke="gray" d="M742.5000137016177,57.500001810491085A6,6,0,1,1,730.5000137016177,57.500001810491085A6,6,0,1,1,742.5000137016177,57.500001810491085"></path><path id="kity_path_61" fill="none" stroke="gray" d="M732.0000137016177,57.500001810491085L741.0000137016177,57.500001810491085"></path></g><path id="node_outline5" fill="none" stroke="none" d="M747.5000139400363,46.500001810491085h58a5,5,0,0,1,5,5v12a5,5,0,0,1,-5,5h-58a5,5,0,0,1,-5,-5v-12a5,5,0,0,1,5,-5z" stroke-width="3"></path><g id="node_text5" fill="black"><text id="kity_text_57" text-rendering="inherit" font-size="12" dy=".8em" y="49.700001783668995" x="752.5000139400363">交换排序</text></g></g><g id="minder_node6"><g id="node_expander5" style="cursor: pointer;"><path id="kity_path_68" fill="white" stroke="gray" d="M742.5000137016177,161.50000336021185A6,6,0,1,1,730.5000137016177,161.50000336021185A6,6,0,1,1,742.5000137016177,161.50000336021185"></path><path id="kity_path_69" fill="none" stroke="gray" d="M732.0000137016177,161.50000336021185L741.0000137016177,161.50000336021185"></path></g><path id="node_outline6" fill="none" stroke="none" d="M747.5000139400363,150.50000336021185h59a5,5,0,0,1,5,5v12a5,5,0,0,1,-5,5h-59a5,5,0,0,1,-5,-5v-12a5,5,0,0,1,5,-5z" stroke-width="3"></path><g id="node_text6" fill="black"><text id="kity_text_65" text-rendering="inherit" font-size="12" dy=".8em" y="153.70000333338976" x="752.5000139400363">插入排序</text></g></g><g id="minder_node7"><g id="node_expander6" style="cursor: pointer;"><path id="kity_path_76" fill="white" stroke="gray" d="M742.5000137016177,265.5000049099326A6,6,0,1,1,730.5000137016177,265.5000049099326A6,6,0,1,1,742.5000137016177,265.5000049099326"></path><path id="kity_path_77" fill="none" stroke="gray" d="M732.0000137016177,265.5000049099326L741.0000137016177,265.5000049099326"></path></g><path id="node_outline7" fill="none" stroke="none" d="M747.5000139400363,254.5000049099326h59a5,5,0,0,1,5,5v12a5,5,0,0,1,-5,5h-59a5,5,0,0,1,-5,-5v-12a5,5,0,0,1,5,-5z" stroke-width="3"></path><g id="node_text7" fill="black"><text id="kity_text_73" text-rendering="inherit" font-size="12" dy=".8em" y="257.7000048831105" x="752.5000139400363">选择排序</text></g></g><g id="minder_node8"><g id="node_expander7" style="cursor: pointer;"><path id="kity_path_84" fill="white" stroke="gray" d="M742.5000137016177,369.5000064596534A6,6,0,1,1,730.5000137016177,369.5000064596534A6,6,0,1,1,742.5000137016177,369.5000064596534"></path><path id="kity_path_85" fill="none" stroke="gray" d="M732.0000137016177,369.5000064596534L741.0000137016177,369.5000064596534"></path></g><path id="node_outline8" fill="none" stroke="none" d="M747.5000139400363,358.5000064596534h58a5,5,0,0,1,5,5v12a5,5,0,0,1,-5,5h-58a5,5,0,0,1,-5,-5v-12a5,5,0,0,1,5,-5z" stroke-width="3"></path><g id="node_text8" fill="black"><text id="kity_text_81" text-rendering="inherit" font-size="12" dy=".8em" y="361.7000064328313" x="752.5000139400363">归并排序</text></g></g><g id="minder_node9"><g id="node_expander8" style="cursor: pointer;" display="none"><path id="kity_path_92" fill="white" stroke="gray" d="M850.5000153109431,31.500001423060894A6,6,0,1,1,838.5000153109431,31.500001423060894A6,6,0,1,1,850.5000153109431,31.500001423060894"></path><path id="kity_path_93" fill="none" stroke="gray"></path></g><path id="node_outline9" fill="none" stroke="none" d="M855.5000155493617,20.500001423060894h58a5,5,0,0,1,5,5v12a5,5,0,0,1,-5,5h-58a5,5,0,0,1,-5,-5v-12a5,5,0,0,1,5,-5z" stroke-width="3"></path><g id="node_text9" fill="black"><text id="kity_text_89" text-rendering="inherit" font-size="12" dy=".8em" y="23.700001396238804" x="860.5000155493617">冒泡排序</text></g></g><g id="minder_node10"><g id="node_expander9" style="cursor: pointer;" display="none"><path id="kity_path_100" fill="white" stroke="gray" d="M850.5000153109431,83.50000219792128A6,6,0,1,1,838.5000153109431,83.50000219792128A6,6,0,1,1,850.5000153109431,83.50000219792128"></path><path id="kity_path_101" fill="none" stroke="gray"></path></g><path id="node_outline10" fill="none" stroke="none" d="M855.5000155493617,72.50000219792128h59a5,5,0,0,1,5,5v12a5,5,0,0,1,-5,5h-59a5,5,0,0,1,-5,-5v-12a5,5,0,0,1,5,-5z" stroke-width="3"></path><g id="node_text10" fill="black"><text id="kity_text_97" text-rendering="inherit" font-size="12" dy=".8em" y="75.70000217109919" x="860.5000155493617">快速排序</text></g></g><g id="minder_node11"><g id="node_expander10" style="cursor: pointer;" display="none"><path id="kity_path_108" fill="white" stroke="gray" d="M851.5000153258443,135.50000297278166A6,6,0,1,1,839.5000153258443,135.50000297278166A6,6,0,1,1,851.5000153258443,135.50000297278166"></path><path id="kity_path_109" fill="none" stroke="gray"></path></g><path id="node_outline11" fill="none" stroke="none" d="M856.5000155642629,124.50000297278166h83a5,5,0,0,1,5,5v12a5,5,0,0,1,-5,5h-83a5,5,0,0,1,-5,-5v-12a5,5,0,0,1,5,-5z" stroke-width="3"></path><g id="node_text11" fill="black"><text id="kity_text_105" text-rendering="inherit" font-size="12" dy=".8em" y="127.70000294595957" x="861.5000155642629">简单插入排序</text></g></g><g id="minder_node12"><g id="node_expander11" style="cursor: pointer;" display="none"><path id="kity_path_116" fill="white" stroke="gray" d="M851.5000153258443,187.50000374764204A6,6,0,1,1,839.5000153258443,187.50000374764204A6,6,0,1,1,851.5000153258443,187.50000374764204"></path><path id="kity_path_117" fill="none" stroke="gray"></path></g><path id="node_outline12" fill="none" stroke="none" d="M856.5000155642629,176.50000374764204h59a5,5,0,0,1,5,5v12a5,5,0,0,1,-5,5h-59a5,5,0,0,1,-5,-5v-12a5,5,0,0,1,5,-5z" stroke-width="3"></path><g id="node_text12" fill="black"><text id="kity_text_113" text-rendering="inherit" font-size="12" dy=".8em" y="179.70000372081995" x="861.5000155642629">希尔排序</text></g></g><g id="minder_node14"><g id="node_expander13" style="cursor: pointer;" display="none"><path id="kity_path_132" fill="white" stroke="gray" d="M851.5000153258443,239.50000452250242A6,6,0,1,1,839.5000153258443,239.50000452250242A6,6,0,1,1,851.5000153258443,239.50000452250242"></path><path id="kity_path_133" fill="none" stroke="gray"></path></g><path id="node_outline14" fill="none" stroke="none" d="M856.5000155642629,228.50000452250242h83a5,5,0,0,1,5,5v12a5,5,0,0,1,-5,5h-83a5,5,0,0,1,-5,-5v-12a5,5,0,0,1,5,-5z" stroke-width="3"></path><g id="node_text14" fill="black"><text id="kity_text_129" text-rendering="inherit" font-size="12" dy=".8em" y="231.70000449568033" x="861.5000155642629">简单选择排序</text></g></g><g id="minder_node15"><g id="node_expander14" style="cursor: pointer;" display="none"><path id="kity_path_140" fill="white" stroke="gray" d="M851.5000153258443,291.5000052973628A6,6,0,1,1,839.5000153258443,291.5000052973628A6,6,0,1,1,851.5000153258443,291.5000052973628"></path><path id="kity_path_141" fill="none" stroke="gray"></path></g><path id="node_outline15" fill="none" stroke="none" d="M856.5000155642629,280.5000052973628h47a5,5,0,0,1,5,5v12a5,5,0,0,1,-5,5h-47a5,5,0,0,1,-5,-5v-12a5,5,0,0,1,5,-5z" stroke-width="3"></path><g id="node_text15" fill="black"><text id="kity_text_137" text-rendering="inherit" font-size="12" dy=".8em" y="283.7000052705407" x="861.5000155642629">堆排序</text></g></g><g id="minder_node16"><g id="node_expander15" style="cursor: pointer;" display="none"><path id="kity_path_148" fill="white" stroke="gray" d="M850.5000153109431,343.5000060722232A6,6,0,1,1,838.5000153109431,343.5000060722232A6,6,0,1,1,850.5000153109431,343.5000060722232"></path><path id="kity_path_149" fill="none" stroke="gray"></path></g><path id="node_outline16" fill="none" stroke="none" d="M855.5000155493617,332.5000060722232h82a5,5,0,0,1,5,5v12a5,5,0,0,1,-5,5h-82a5,5,0,0,1,-5,-5v-12a5,5,0,0,1,5,-5z" stroke-width="3"></path><g id="node_text16" fill="black"><text id="kity_text_145" text-rendering="inherit" font-size="12" dy=".8em" y="335.7000060454011" x="860.5000155493617">二路归并排序</text></g></g><g id="minder_node17"><g id="node_expander16" style="cursor: pointer;" display="none"><path id="kity_path_156" fill="white" stroke="gray" d="M850.5000153109431,395.50000684708357A6,6,0,1,1,838.5000153109431,395.50000684708357A6,6,0,1,1,850.5000153109431,395.50000684708357"></path><path id="kity_path_157" fill="none" stroke="gray"></path></g><path id="node_outline17" fill="none" stroke="none" d="M855.5000155493617,384.50000684708357h82a5,5,0,0,1,5,5v12a5,5,0,0,1,-5,5h-82a5,5,0,0,1,-5,-5v-12a5,5,0,0,1,5,-5z" stroke-width="3"></path><g id="node_text17" fill="black"><text id="kity_text_153" text-rendering="inherit" font-size="12" dy=".8em" y="387.7000068202615" x="860.5000155493617">多路归并排序</text></g></g><g id="minder_node18"><g id="node_expander17" style="cursor: pointer;" display="none"><path id="kity_path_164" fill="white" stroke="gray" d="M101.50000414997339,161.50000336021185A6,6,0,1,1,89.50000414997339,161.50000336021185A6,6,0,1,1,101.50000414997339,161.50000336021185"></path><path id="kity_path_165" fill="none" stroke="gray"></path></g><path id="node_outline18" fill="none" stroke="none" d="M25.500003181397915,150.50000336021185h59a5,5,0,0,1,5,5v12a5,5,0,0,1,-5,5h-59a5,5,0,0,1,-5,-5v-12a5,5,0,0,1,5,-5z" stroke-width="3"></path><g id="node_text18" fill="black"><text id="kity_text_161" text-rendering="inherit" font-size="12" dy=".8em" y="153.70000333338976" x="30.500003181397915">计数排序</text></g></g><g id="minder_node19"><g id="node_expander18" style="cursor: pointer;" display="none"><path id="kity_path_172" fill="white" stroke="gray" d="M101.50000414997339,213.50000413507223A6,6,0,1,1,89.50000414997339,213.50000413507223A6,6,0,1,1,101.50000414997339,213.50000413507223"></path><path id="kity_path_173" fill="none" stroke="gray"></path></g><path id="node_outline19" fill="none" stroke="none" d="M37.50000336021185,202.50000413507223h47a5,5,0,0,1,5,5v12a5,5,0,0,1,-5,5h-47a5,5,0,0,1,-5,-5v-12a5,5,0,0,1,5,-5z" stroke-width="3"></path><g id="node_text19" fill="black"><text id="kity_text_169" text-rendering="inherit" font-size="12" dy=".8em" y="205.70000410825014" x="42.50000336021185">桶排序</text></g></g><g id="minder_node20"><g id="node_expander19" style="cursor: pointer;" display="none"><path id="kity_path_180" fill="white" stroke="gray" d="M101.50000414997339,265.5000049099326A6,6,0,1,1,89.50000414997339,265.5000049099326A6,6,0,1,1,101.50000414997339,265.5000049099326"></path><path id="kity_path_181" fill="none" stroke="gray"></path></g><path id="node_outline20" fill="none" stroke="none" d="M25.500003181397915,254.5000049099326h59a5,5,0,0,1,5,5v12a5,5,0,0,1,-5,5h-59a5,5,0,0,1,-5,-5v-12a5,5,0,0,1,5,-5z" stroke-width="3"></path><g id="node_text20" fill="black"><text id="kity_text_177" text-rendering="inherit" font-size="12" dy=".8em" y="257.7000048831105" x="30.500003181397915">基数排序</text></g></g></g></g></svg>